<svg width="73" height="102" viewBox="0 0 73 102" fill="none" xmlns="http://www.w3.org/2000/svg">
<path d="M73 65.5C73 85.6584 56.6584 102 36.5 102C16.3416 102 0 85.6584 0 65.5C0 45.3416 21 21 36.5 0C52 20.5 73 45.3416 73 65.5Z" fill="#8DBBFF"/>
<path d="M13.335 63.666C13.335 62.207 13.6807 61.0352 14.3721 60.1504C15.0635 59.2598 15.9688 58.8145 17.0879 58.8145C18.2012 58.8145 19.083 59.1953 19.7334 59.957V55H21.3594V68.5H19.8652L19.7861 67.4805C19.1357 68.2773 18.2305 68.6758 17.0703 68.6758C15.9688 68.6758 15.0693 68.2246 14.3721 67.3223C13.6807 66.4199 13.335 65.2422 13.335 63.7891V63.666ZM14.9609 63.8506C14.9609 64.9287 15.1836 65.7725 15.6289 66.3818C16.0742 66.9912 16.6895 67.2959 17.4746 67.2959C18.5059 67.2959 19.2588 66.833 19.7334 65.9072V61.5391C19.2471 60.6426 18.5 60.1943 17.4922 60.1943C16.6953 60.1943 16.0742 60.502 15.6289 61.1172C15.1836 61.7324 14.9609 62.6436 14.9609 63.8506ZM28.4873 60.4492C28.2412 60.4082 27.9746 60.3877 27.6875 60.3877C26.6211 60.3877 25.8975 60.8418 25.5166 61.75V68.5H23.8906V58.9902H25.4727L25.499 60.0889C26.0322 59.2393 26.7881 58.8145 27.7666 58.8145C28.083 58.8145 28.3232 58.8555 28.4873 58.9375V60.4492ZM29.3838 63.6572C29.3838 62.7256 29.5654 61.8877 29.9287 61.1436C30.2979 60.3994 30.8076 59.8252 31.458 59.4209C32.1143 59.0166 32.8613 58.8145 33.6992 58.8145C34.9941 58.8145 36.04 59.2627 36.8369 60.1592C37.6396 61.0557 38.041 62.248 38.041 63.7363V63.8506C38.041 64.7764 37.8623 65.6084 37.5049 66.3467C37.1533 67.0791 36.6465 67.6504 35.9844 68.0605C35.3281 68.4707 34.5723 68.6758 33.7168 68.6758C32.4277 68.6758 31.3818 68.2275 30.5791 67.3311C29.7822 66.4346 29.3838 65.248 29.3838 63.7715V63.6572ZM31.0186 63.8506C31.0186 64.9053 31.2617 65.752 31.748 66.3906C32.2402 67.0293 32.8965 67.3486 33.7168 67.3486C34.543 67.3486 35.1992 67.0264 35.6855 66.3818C36.1719 65.7314 36.415 64.8232 36.415 63.6572C36.415 62.6143 36.166 61.7705 35.668 61.126C35.1758 60.4756 34.5195 60.1504 33.6992 60.1504C32.8965 60.1504 32.249 60.4697 31.7568 61.1084C31.2646 61.7471 31.0186 62.6611 31.0186 63.8506ZM48.1133 63.8506C48.1133 65.2979 47.7822 66.4639 47.1201 67.3486C46.458 68.2334 45.5615 68.6758 44.4307 68.6758C43.2764 68.6758 42.3682 68.3096 41.7061 67.5771V72.1562H40.0801V58.9902H41.5654L41.6445 60.0449C42.3066 59.2246 43.2266 58.8145 44.4043 58.8145C45.5469 58.8145 46.4492 59.2451 47.1113 60.1064C47.7793 60.9678 48.1133 62.166 48.1133 63.7012V63.8506ZM46.4873 63.666C46.4873 62.5938 46.2588 61.7471 45.8018 61.126C45.3447 60.5049 44.7178 60.1943 43.9209 60.1943C42.9365 60.1943 42.1982 60.6309 41.7061 61.5039V66.0479C42.1924 66.915 42.9365 67.3486 43.9385 67.3486C44.7178 67.3486 45.3359 67.041 45.793 66.4258C46.2559 65.8047 46.4873 64.8848 46.4873 63.666ZM55.7246 65.9775C55.7246 65.5381 55.5576 65.1982 55.2236 64.958C54.8955 64.7119 54.3184 64.501 53.4922 64.3252C52.6719 64.1494 52.0186 63.9385 51.5322 63.6924C51.0518 63.4463 50.6943 63.1533 50.46 62.8135C50.2314 62.4736 50.1172 62.0693 50.1172 61.6006C50.1172 60.8213 50.4453 60.1621 51.1016 59.623C51.7637 59.084 52.6074 58.8145 53.6328 58.8145C54.7109 58.8145 55.584 59.0928 56.252 59.6494C56.9258 60.2061 57.2627 60.918 57.2627 61.7852H55.6279C55.6279 61.3398 55.4375 60.9561 55.0566 60.6338C54.6816 60.3115 54.207 60.1504 53.6328 60.1504C53.041 60.1504 52.5781 60.2793 52.2441 60.5371C51.9102 60.7949 51.7432 61.1318 51.7432 61.5479C51.7432 61.9404 51.8984 62.2363 52.209 62.4355C52.5195 62.6348 53.0791 62.8252 53.8877 63.0068C54.7021 63.1885 55.3613 63.4053 55.8652 63.6572C56.3691 63.9092 56.7412 64.2139 56.9814 64.5713C57.2275 64.9229 57.3506 65.3535 57.3506 65.8633C57.3506 66.7129 57.0107 67.3955 56.3311 67.9111C55.6514 68.4209 54.7695 68.6758 53.6855 68.6758C52.9238 68.6758 52.25 68.541 51.6641 68.2715C51.0781 68.002 50.6182 67.627 50.2842 67.1465C49.9561 66.6602 49.792 66.1357 49.792 65.5732H51.418C51.4473 66.1182 51.6641 66.5518 52.0684 66.874C52.4785 67.1904 53.0176 67.3486 53.6855 67.3486C54.3008 67.3486 54.793 67.2256 55.1621 66.9795C55.5371 66.7275 55.7246 66.3936 55.7246 65.9775Z" fill="white"/>
</svg>
